<svg width="32" height="32" viewBox="0 0 32 32" fill="none" xmlns="http://www.w3.org/2000/svg">
<path d="M16.0001 5.97266C14.9927 5.97266 14.008 6.27138 13.1704 6.83104C12.3328 7.3907 11.6799 8.18617 11.2944 9.11685C10.9089 10.0475 10.8081 11.0716 11.0046 12.0596C11.2011 13.0477 11.6862 13.9552 12.3985 14.6675C13.1109 15.3798 14.0184 15.8649 15.0064 16.0615C15.9944 16.258 17.0185 16.1571 17.9492 15.7716C18.8799 15.3861 19.6754 14.7333 20.235 13.8957C20.7947 13.0581 21.0934 12.0734 21.0934 11.066C21.0934 9.71515 20.5568 8.41964 19.6016 7.46446C18.6464 6.50927 17.3509 5.97266 16.0001 5.97266ZM16.0001 14.3815C15.3443 14.3815 14.7033 14.1871 14.1581 13.8228C13.6128 13.4585 13.1878 12.9406 12.9369 12.3348C12.686 11.729 12.6203 11.0623 12.7482 10.4192C12.8762 9.776 13.1919 9.18523 13.6556 8.72154C14.1193 8.25785 14.7101 7.94207 15.3532 7.81414C15.9964 7.68621 16.663 7.75187 17.2689 8.00282C17.8747 8.25376 18.3925 8.67872 18.7569 9.22396C19.1212 9.76921 19.3156 10.4102 19.3156 11.066C19.3133 11.9438 18.9629 12.7848 18.3414 13.4047C17.7199 14.0246 16.8779 14.3727 16.0001 14.3727V14.3815Z" fill="#2A2A2A"/>
<path d="M15.9999 1.77734C13.2312 1.77966 10.5759 2.87751 8.61397 4.83112C6.65204 6.78473 5.5429 9.43533 5.52881 12.204C5.52881 16.3551 7.8577 19.8307 9.56436 22.364L9.87548 22.8262C11.5735 25.2872 13.3951 27.6606 15.3333 29.9373L16.0088 30.7285L16.6844 29.9373C18.6223 27.6604 20.4439 25.287 22.1421 22.8262L22.4533 22.3551C24.151 19.8218 26.4799 16.3551 26.4799 12.204C26.4658 9.43379 25.3555 6.78185 23.3916 4.82799C21.4278 2.87412 18.7702 1.77731 15.9999 1.77734V1.77734ZM20.9688 21.3329L20.6488 21.804C19.1199 24.0973 17.0933 26.6662 15.9999 27.9373C14.951 26.6662 12.8799 24.0973 11.351 21.804L11.0399 21.3329C9.46659 18.9862 7.30659 15.7773 7.30659 12.1685C7.30659 11.0268 7.53145 9.89639 7.96833 8.84166C8.40521 7.78694 9.04555 6.82859 9.8528 6.02134C10.6601 5.21409 11.6184 4.57374 12.6731 4.13686C13.7278 3.69998 14.8583 3.47512 15.9999 3.47512C17.1415 3.47512 18.272 3.69998 19.3267 4.13686C20.3814 4.57374 21.3398 5.21409 22.147 6.02134C22.9543 6.82859 23.5946 7.78694 24.0315 8.84166C24.4684 9.89639 24.6933 11.0268 24.6933 12.1685C24.6933 15.8129 22.5421 19.0218 20.9688 21.3329V21.3329Z" fill="#2A2A2A"/>
</svg>
