<svg width="29" height="29" viewBox="0 0 29 29" fill="none" xmlns="http://www.w3.org/2000/svg">
<path d="M21.75 11.7812H19.9375C19.9368 11.0604 19.6501 10.3693 19.1404 9.8596C18.6307 9.34989 17.9396 9.06322 17.2188 9.0625V7.25C18.4201 7.25144 19.5718 7.7293 20.4212 8.57876C21.2707 9.42822 21.7486 10.5799 21.75 11.7812V11.7812Z" fill="#2A2A2A"/>
<path d="M25.375 11.7812H23.5625C23.5606 10.0994 22.8916 8.48693 21.7023 7.29766C20.5131 6.10839 18.9006 5.43942 17.2188 5.4375V3.625C19.3812 3.6274 21.4544 4.48749 22.9834 6.01656C24.5125 7.54563 25.3726 9.61881 25.375 11.7812V11.7812Z" fill="#2A2A2A"/>
<path d="M23.5627 26.2812H23.4086C5.60081 25.2572 3.07237 10.2316 2.71893 5.64594C2.6637 4.92705 2.89627 4.21567 3.36551 3.66825C3.83475 3.12084 4.50221 2.78223 5.22109 2.72691C5.29299 2.72147 5.36518 2.71875 5.43768 2.71875H10.2136C10.5766 2.7184 10.9314 2.82706 11.2319 3.03065C11.5325 3.23424 11.7649 3.52338 11.8992 3.86063L13.2767 7.25C13.4094 7.57946 13.4423 7.94063 13.3714 8.28865C13.3005 8.63666 13.1289 8.95617 12.878 9.2075L10.9477 11.1559C11.248 12.87 12.0682 14.4501 13.297 15.6822C14.5258 16.9143 16.1038 17.7386 17.8171 18.0434L19.7836 16.095C20.0387 15.8468 20.3613 15.6793 20.711 15.6132C21.0607 15.5471 21.4221 15.5855 21.7502 15.7234L25.1667 17.0919C25.4989 17.2304 25.7823 17.4647 25.9808 17.7649C26.1793 18.0651 26.284 18.4176 26.2814 18.7775V23.5625C26.2814 24.2836 25.995 24.9751 25.4851 25.4849C24.9753 25.9948 24.2837 26.2812 23.5627 26.2812ZM5.43768 4.53125C5.31867 4.53089 5.20076 4.55398 5.09067 4.59919C4.98058 4.64441 4.88048 4.71086 4.79607 4.79476C4.71167 4.87866 4.64461 4.97837 4.59874 5.08818C4.55287 5.198 4.52907 5.31577 4.52872 5.43478C4.52872 5.46016 4.52962 5.48523 4.53143 5.51C4.94831 10.875 7.62175 23.5625 23.5083 24.4688C23.7482 24.4831 23.9839 24.4016 24.1637 24.2422C24.3435 24.0828 24.4527 23.8585 24.4671 23.6187L24.4689 23.5625V18.7775L21.0524 17.4091L18.4514 19.9919L18.0164 19.9375C10.1321 18.9497 9.06268 11.0653 9.06268 10.9838L9.00831 10.5488L11.5821 7.94781L10.2227 4.53125H5.43768Z" fill="#2A2A2A"/>
</svg>
