<svg width="23" height="23" viewBox="0 0 23 23" fill="none" xmlns="http://www.w3.org/2000/svg">
<path d="M11.4318 0.0878906C8.32951 0.0878906 7.9394 0.10218 6.72048 0.156482C5.50156 0.213641 4.67133 0.405124 3.94398 0.688061C3.18104 0.975027 2.48998 1.42517 1.91912 2.00701C1.33763 2.57816 0.887548 3.26914 0.60017 4.03187C0.317233 4.75779 0.124321 5.58945 0.0685909 6.80408C0.0142898 8.02586 0 8.41454 0 11.5211C0 14.6249 0.0142898 15.0136 0.0685909 16.2325C0.12575 17.45 0.317233 18.2802 0.60017 19.0075C0.893111 19.7592 1.28322 20.3965 1.91912 21.0324C2.55358 21.6683 3.19091 22.0598 3.94255 22.3514C4.67133 22.6343 5.50013 22.8272 6.71762 22.8829C7.93797 22.9372 8.32665 22.9515 11.4318 22.9515C14.537 22.9515 14.9242 22.9372 16.1446 22.8829C17.3606 22.8258 18.1937 22.6343 18.9211 22.3514C19.6835 22.0642 20.3741 21.6141 20.9445 21.0324C21.5804 20.3965 21.9705 19.7592 22.2635 19.0075C22.545 18.2802 22.7379 17.45 22.795 16.2325C22.8493 15.0136 22.8636 14.6249 22.8636 11.5197C22.8636 8.41454 22.8493 8.02586 22.795 6.80551C22.7379 5.58945 22.545 4.75779 22.2635 4.03187C21.9761 3.26912 21.526 2.57813 20.9445 2.00701C20.3738 1.42495 19.6827 0.974779 18.9197 0.688061C18.1909 0.405124 17.3592 0.212212 16.1432 0.156482C14.9228 0.10218 14.5356 0.0878906 11.429 0.0878906H11.4332H11.4318ZM10.4072 2.14848H11.4332C14.4855 2.14848 14.8471 2.15848 16.0517 2.21421C17.1663 2.26422 17.7722 2.45142 18.1752 2.60718C18.7082 2.81438 19.0897 3.06302 19.4898 3.46313C19.8899 3.86325 20.1371 4.24336 20.3443 4.77779C20.5015 5.17934 20.6873 5.78522 20.7373 6.89983C20.793 8.10445 20.8045 8.46598 20.8045 11.5169C20.8045 14.5677 20.793 14.9307 20.7373 16.1353C20.6873 17.2499 20.5001 17.8544 20.3443 18.2573C20.1611 18.7537 19.8685 19.2025 19.4884 19.5706C19.0883 19.9707 18.7082 20.2179 18.1737 20.4251C17.7736 20.5823 17.1677 20.768 16.0517 20.8195C14.8471 20.8738 14.4855 20.8867 11.4332 20.8867C8.38095 20.8867 8.01799 20.8738 6.81336 20.8195C5.69876 20.768 5.0943 20.5823 4.69133 20.4251C4.19476 20.2421 3.74553 19.9501 3.37667 19.5706C2.99621 19.2019 2.70323 18.7527 2.51929 18.2559C2.36353 17.8544 2.17633 17.2485 2.12632 16.1339C2.07202 14.9292 2.06059 14.5677 2.06059 11.514C2.06059 8.4617 2.07202 8.10159 2.12632 6.89697C2.17776 5.78236 2.36353 5.17648 2.52072 4.77351C2.72792 4.2405 2.97656 3.85896 3.37667 3.45885C3.77679 3.05873 4.15689 2.81152 4.69133 2.60432C5.0943 2.44713 5.69876 2.26136 6.81336 2.20992C7.86795 2.16134 8.27664 2.14705 10.4072 2.14562V2.14848ZM17.535 4.04616C17.3548 4.04616 17.1764 4.08164 17.01 4.15058C16.8436 4.21952 16.6923 4.32057 16.565 4.44795C16.4376 4.57534 16.3365 4.72657 16.2676 4.893C16.1986 5.05944 16.1632 5.23783 16.1632 5.41798C16.1632 5.59813 16.1986 5.77651 16.2676 5.94295C16.3365 6.10938 16.4376 6.26061 16.565 6.388C16.6923 6.51538 16.8436 6.61643 17.01 6.68537C17.1764 6.75431 17.3548 6.78979 17.535 6.78979C17.8988 6.78979 18.2477 6.64526 18.505 6.388C18.7623 6.13073 18.9068 5.7818 18.9068 5.41798C18.9068 5.05415 18.7623 4.70522 18.505 4.44795C18.2477 4.19069 17.8988 4.04616 17.535 4.04616ZM11.4332 5.64947C10.6546 5.63732 9.88123 5.7802 9.15828 6.06979C8.43534 6.35938 7.77723 6.7899 7.22227 7.33627C6.6673 7.88264 6.22657 8.53396 5.92574 9.25229C5.62491 9.97063 5.46998 10.7416 5.46998 11.5204C5.46998 12.2992 5.62491 13.0702 5.92574 13.7886C6.22657 14.5069 6.6673 15.1582 7.22227 15.7046C7.77723 16.251 8.43534 16.6815 9.15828 16.9711C9.88123 17.2606 10.6546 17.4035 11.4332 17.3914C12.9745 17.3673 14.4444 16.7382 15.5258 15.6398C16.6072 14.5414 17.2133 13.0618 17.2133 11.5204C17.2133 9.97902 16.6072 8.49944 15.5258 7.40104C14.4444 6.30264 12.9745 5.67352 11.4332 5.64947ZM11.4332 7.70863C12.444 7.70863 13.4134 8.11015 14.1281 8.82487C14.8428 9.53958 15.2443 10.5089 15.2443 11.5197C15.2443 12.5305 14.8428 13.4998 14.1281 14.2146C13.4134 14.9293 12.444 15.3308 11.4332 15.3308C10.4225 15.3308 9.45312 14.9293 8.7384 14.2146C8.02369 13.4998 7.62216 12.5305 7.62216 11.5197C7.62216 10.5089 8.02369 9.53958 8.7384 8.82487C9.45312 8.11015 10.4225 7.70863 11.4332 7.70863Z" fill="#F9A43F"/>
</svg>
