<svg width="25" height="24" viewBox="0 0 25 24" fill="none" xmlns="http://www.w3.org/2000/svg">
<path d="M19.6053 9.1421C19.699 8.84265 19.6053 8.62305 19.1622 8.62305H17.6942C17.3207 8.62305 17.15 8.81302 17.0563 9.02168C17.0563 9.02168 16.3099 10.7727 15.2523 11.908C14.9109 12.2384 14.755 12.3427 14.5689 12.3427C14.4758 12.3427 14.3406 12.2384 14.3406 11.9389V9.1421C14.3406 8.78276 14.2329 8.62305 13.9216 8.62305H11.6149C11.382 8.62305 11.2414 8.7892 11.2414 8.94762C11.2414 9.28764 11.7702 9.36621 11.8244 10.3245V12.4033C11.8244 12.8586 11.7394 12.9416 11.552 12.9416C11.0546 12.9416 9.8444 11.1842 9.12616 9.17237C8.98626 8.78147 8.84502 8.62369 8.47017 8.62369H7.00289C6.58318 8.62369 6.49951 8.81367 6.49951 9.02232C6.49951 9.39712 6.99686 11.2518 8.81624 13.7048C10.0292 15.3798 11.7367 16.2878 13.2924 16.2878C14.2248 16.2878 14.34 16.0862 14.34 15.7385V14.4724C14.34 14.0693 14.429 13.9881 14.7242 13.9881C14.9411 13.9881 15.3146 14.0937 16.1854 14.9007C17.1801 15.8576 17.3448 16.2872 17.9037 16.2872H19.371C19.7901 16.2872 19.9996 16.0856 19.8791 15.6876C19.7472 15.2916 19.272 14.7152 18.6414 14.0332C18.2987 13.6442 17.7866 13.2256 17.6306 13.0163C17.4131 12.7465 17.476 12.6274 17.6306 12.3878C17.6313 12.3885 19.4192 9.96576 19.6053 9.1421Z" fill="#F9A43F"/>
<rect x="2.83984" y="2.08789" width="20.8636" height="20.8636" rx="6" stroke="#F9A43F" stroke-width="2"/>
</svg>
